<?xml version="1.0" encoding="UTF-8" standalone="no"?>
<svg
   data-v-0dd9719b=""
   version="1.0"
   width="262"
   height="83"
   viewBox="0 0 262 83"
   preserveAspectRatio="xMidYMid"
   color-interpolation-filters="sRGB"
   id="svg29"
   sodipodi:docname="logo.svg"
   inkscape:version="1.3.1 (91b66b0, 2023-11-16)"
   xmlns:inkscape="http://www.inkscape.org/namespaces/inkscape"
   xmlns:sodipodi="http://sodipodi.sourceforge.net/DTD/sodipodi-0.dtd"
   xmlns="http://www.w3.org/2000/svg"
   xmlns:svg="http://www.w3.org/2000/svg">
  <sodipodi:namedview
     id="namedview1"
     pagecolor="#ffffff"
     bordercolor="#000000"
     borderopacity="0.25"
     inkscape:showpageshadow="2"
     inkscape:pageopacity="0.0"
     inkscape:pagecheckerboard="0"
     inkscape:deskcolor="#d1d1d1"
     inkscape:zoom="2.36"
     inkscape:cx="130.9322"
     inkscape:cy="50.211864"
     inkscape:window-width="1320"
     inkscape:window-height="864"
     inkscape:window-x="0"
     inkscape:window-y="38"
     inkscape:window-maximized="0"
     inkscape:current-layer="g17" />
  <g
     data-v-0dd9719b=""
     fill="#f78575"
     class="pmspacesvg"
     transform="translate(-10,6.5074763)"
     id="g17">
    <rect
       data-gra="graph-name"
       fill="#f78575"
       fill-opacity="0.5"
       x="24.748848"
       y="-10.461342"
       width="248.98216"
       height="54.88126"
       transform="rotate(6.9315187)"
       id="rect3"
       style="fill:#f9b593;fill-opacity:0.501961;stroke-width:1.03514"
       ry="7.6990271" />
    <rect
       data-gra="graph-name"
       fill="#f78575"
       fill-opacity="1"
       x="10"
       y="13.475629"
       width="255.94876"
       height="54.034317"
       id="rect4"
       style="fill:#f7a278;fill-opacity:1;stroke-width:1.03514"
       ry="7.8951373" />
  </g>
  <g
     id="g1"
     transform="matrix(1.0351402,0,0,1.0351402,0,-7.4558486)">
    <path
       d="m 25,59.047475 c 0,2.99 -0.98,4.64 -4.91,4.64 -3.93,0 -4.67,-1.65 -4.67,-4.52 v -11.74 c 0,-2.87 0.74,-4.52 4.67,-4.52 4.2,0 4.91,1.65 4.91,4.6 h 5.42 c 0,-6.72 -3.03,-9.39 -10.33,-9.39 -7.3,0 -10.09,2.63 -10.09,9.04 v 12.29 c 0,6.24 2.9,9.03 10.09,9.03 7.19,0 10.33,-2.79 10.33,-9.43 z m 20.61,0.12 c -0.23,2.32 -1.1,4.6 -4.24,4.6 -1.84,0 -3.18,-0.51 -3.18,-2.05 0,-1.84 1.93,-3.1 7.42,-2.55 z m -6.67,-5.97 c -0.04,-2.47 0.82,-3.3 3.18,-3.3 2.83,0 3.49,1.73 3.49,5.19 -7.97,-0.55 -12.52,1.61 -12.52,7.07 0,4.36 2.86,6.55 6.67,6.55 2.59,0 4.79,-1.17 6.09,-2.98 l 0.51,2.67 h 4.4 v -14.25 c 0,-6.01 -2.63,-9.04 -8.68,-9.04 -5.54,0 -8.64,2.32 -8.29,8.09 z m 16.81,6.72 c 0,6.63 1.84,8.48 8.09,8.48 v -5.18 c -2.24,0 -2.71,-0.83 -2.71,-3.38 v -21.72 h -5.38 z m 24.03,1.37 c 0,1.61 -1.06,2.52 -3.61,2.52 -2.2,0 -3.66,-0.71 -3.66,-4.44 v -0.59 h 12.57 v -4.6 c 0,-6.24 -2.91,-9.03 -8.99,-9.03 -6.09,0 -9,3.22 -9,9.03 v 5.27 c 0,6.24 2.91,9.03 9,9.03 6.08,0 8.99,-2.32 8.99,-7.19 z m -3.54,-11.46 c 3.07,0 3.62,1.61 3.62,4.51 h -7.35 c 0,-2.79 0.55,-4.51 3.73,-4.51 z m 14.02,18.57 h 5.38 v -14.45 c 0,-2.99 1.65,-4.01 3.73,-4.01 2.24,0 3.5,1.22 3.5,4.21 v 14.25 h 5.34 v -14.29 c 0,-7.07 -3.73,-9.08 -7.54,-9.04 -1.96,0 -4.01,0.79 -5.46,2.52 l -0.27,-2.36 h -4.68 z m 40.69,0 v -30.24 h -5.38 v 8.84 c -0.91,-1.53 -2.87,-2.04 -4.76,-2.04 -5.14,0 -7.77,3.18 -7.77,8.64 v 5.96 c 0,6.44 3.06,8.96 7.62,8.96 2.63,0 4.55,-1.02 5.46,-2.67 l 0.39,2.55 z m -8.88,-18.46 c 2.16,0 3.5,1.06 3.5,3.85 v 5.3 c 0,2.67 -0.99,4.64 -3.66,4.64 -2.12,0 -3.49,-1.1 -3.49,-4.44 v -5.46 c 0,-2.79 1.33,-3.89 3.65,-3.89 z m 25.84,9.23 c -0.24,2.32 -1.1,4.6 -4.24,4.6 -1.85,0 -3.18,-0.51 -3.18,-2.05 0,-1.84 1.92,-3.1 7.42,-2.55 z m -6.68,-5.97 c -0.03,-2.47 0.83,-3.3 3.19,-3.3 2.82,0 3.49,1.73 3.49,5.19 -7.97,-0.55 -12.53,1.61 -12.53,7.07 0,4.36 2.87,6.55 6.68,6.55 2.59,0 4.79,-1.17 6.09,-2.98 l 0.51,2.67 h 4.39 v -14.25 c 0,-6.01 -2.63,-9.04 -8.67,-9.04 -5.54,0 -8.64,2.32 -8.29,8.09 z m 28.04,-8.09 c -2.86,-0.47 -5.49,0.95 -6.44,2.56 l -0.23,-2.44 h -4.95 v 23.21 h 5.38 v -13.27 c 0,-3.46 2.75,-4.83 6.24,-4.36 z"
       id="path5"
       style="fill:#fdfbf6;fill-opacity:1" />
    <path
       d="m 186.87999,38.077475 h -14.61 v 1.85 h 6.33 v 28.47 h 1.96 v -28.47 h 6.32 z m 4.99,28.79 c -4.52,0 -5.3,-2 -5.3,-6.95 v -6.09 c 0,-4.83 1.06,-6.75 5.3,-6.75 4.52,0 5.3,1.88 5.3,6.83 v 6.09 c 0,4.83 -1.06,6.87 -5.3,6.87 z m 0,1.8 c 4.95,0 7.26,-2.23 7.26,-8.6 v -6.16 c 0,-6.75 -2.31,-8.68 -7.26,-8.68 -4.95,0 -7.27,2.08 -7.27,8.56 v 6.28 c 0,6.68 2.32,8.6 7.27,8.6 z m 18.26,-0.15 c 2.83,0 4.59,-1.02 5.69,-2.63 l 0.2,2.51 h 1.73 v -31.89 h -1.97 v 10.68 c -1.25,-1.45 -2.9,-2.04 -5.3,-2.04 -4.55,0 -7.26,2.24 -7.26,7.66 v 7.42 c 0,6.01 2.08,8.29 6.91,8.29 z m -4.95,-8.33 v -7.3 c 0,-3.85 1.06,-5.93 5.3,-5.93 4.24,0 5.34,1.81 5.3,6.16 v 7.58 c 0,3.73 -1.45,5.89 -5.45,5.97 -3.46,0 -5.15,-1.33 -5.15,-6.48 z m 24.82,6.68 c -4.52,0 -5.3,-2 -5.3,-6.95 v -6.09 c 0,-4.83 1.06,-6.75 5.3,-6.75 4.52,0 5.3,1.88 5.3,6.83 v 6.09 c 0,4.83 -1.06,6.87 -5.3,6.87 z m 0,1.8 c 4.95,0 7.26,-2.23 7.26,-8.6 v -6.16 c 0,-6.75 -2.31,-8.68 -7.26,-8.68 -4.95,0 -7.26,2.08 -7.26,8.56 v 6.28 c 0,6.68 2.31,8.6 7.26,8.6 z"
       id="path6"
       style="fill:#fdece4;fill-opacity:1" />
  </g>
  <defs
     v-gra="od"
     id="defs29" />
</svg>
